<svg xmlns="http://www.w3.org/2000/svg" viewBox="0 0 300 300" width="300" height="300">
  <!-- Central node (large) -->
  <circle cx="150" cy="150" r="40" fill="#4472C4" stroke="#fff" stroke-width="4" />
  <!-- Surrounding nodes -->
  <g>
    <line x1="150" y1="150" x2="80" y2="80" stroke="#4472C4" stroke-width="3" opacity="0.6" />
    <circle cx="80" cy="80" r="18" fill="#FF6B35" stroke="#fff" stroke-width="3" />
  </g>
  <g>
    <line x1="150" y1="150" x2="220" y2="80" stroke="#4472C4" stroke-width="3" opacity="0.6" />
    <circle cx="220" cy="80" r="18" fill="#FF6B35" stroke="#fff" stroke-width="3" />
  </g>
  <g>
    <line x1="150" y1="150" x2="80" y2="220" stroke="#4472C4" stroke-width="3" opacity="0.6" />
    <circle cx="80" cy="220" r="18" fill="#FF6B35" stroke="#fff" stroke-width="3" />
  </g>
  <g>
    <line x1="150" y1="150" x2="220" y2="220" stroke="#4472C4" stroke-width="3" opacity="0.6" />
    <circle cx="220" cy="220" r="18" fill="#FF6B35" stroke="#fff" stroke-width="3" />
  </g>
  <g>
    <line x1="150" y1="150" x2="150" y2="60" stroke="#4472C4" stroke-width="3" opacity="0.6" />
    <circle cx="150" cy="60" r="18" fill="#FF6B35" stroke="#fff" stroke-width="3" />
  </g>
  <g>
    <line x1="150" y1="150" x2="150" y2="240" stroke="#4472C4" stroke-width="3" opacity="0.6" />
    <circle cx="150" cy="240" r="18" fill="#FF6B35" stroke="#fff" stroke-width="3" />
  </g>
  <g>
    <line x1="150" y1="150" x2="60" y2="150" stroke="#4472C4" stroke-width="3" opacity="0.6" />
    <circle cx="60" cy="150" r="18" fill="#FF6B35" stroke="#fff" stroke-width="3" />
  </g>
  <g>
    <line x1="150" y1="150" x2="240" y2="150" stroke="#4472C4" stroke-width="3" opacity="0.6" />
    <circle cx="240" cy="150" r="18" fill="#FF6B35" stroke="#fff" stroke-width="3" />
  </g>
</svg>
